<mxfile host="app.diagrams.net" modified="2023-09-25T12:58:06.632Z" agent="Mozilla/5.0 (Windows NT 10.0; Win64; x64; rv:109.0) Gecko/20100101 Firefox/117.0" version="21.8.2" etag="YN8JmjO9OiswXv8LaVdq" type="github">
  <diagram name="Page-1" id="SofLGpAn1DRJVzpEgGMB">
    <mxGraphModel>
      <root>
        <mxCell id="0" />
        <mxCell id="1" parent="0" />
      </root>
    </mxGraphModel>
  </diagram>
</mxfile>
